<svg xmlns="http://www.w3.org/2000/svg" width="256" height="256" fill="none" viewBox="0 0 256 256">
<!-- SVG created with Arrow, by QuiverAI (https://quiver.ai) -->
  <path d="m184.7 99.79c-24.01-6.8-53.19-16.6-53.19-53.7v-29.66c0-3.16-1.95-3.97-3.66-3.97h-0.03c-1.7 0-3.65 0.81-3.65 3.97v29.66c0 25.9-18.1 41.89-50.14 51.8-29.27 8.32-53.96 22.04-65.02 61.33l-1.25 4.54c-0.77 2.95 0.95 4.59 3.05 4.73 1.93 0.12 3.35-0.88 4-3.27 8.18-28.84 22.92-45.03 50.38-55.2-23.23 19.15-34.74 47.97-35.64 84.64-0.08 3.78 2.14 4.25 3.79 4.23 2.04-0.02 3.6-1.01 3.74-3.63 1.99-35.4 11.96-62.47 40.64-84.67 7-5.2 15.29-11.48 22.24-14.82 9.42-5.07 17.75-12.85 23.62-21.79-1.63 17.79-9.24 33.89-23.8 47.77-9.62 9.29-20.54 16.43-28.92 31.03-11.12 19.98-15.23 36.98-15.33 62.83-0.01 2.8 1.79 3.9 3.86 3.87 2.23-0.04 3.55-1.07 3.56-3.37 0.43-23.59 4.46-46 16.88-63.45 9.08-12.93 25.84-23.55 37.14-40.17 2.12-3.28 4.39-7.31 6.54-8.58v17.82c0 14.22-5.22 29.14-15.28 44.44-14.52 20.36-22.45 36.77-22.65 65.24-0.02 3.36 2.25 4.04 4.04 3.98 2.1-0.07 3.49-1.28 3.51-4.06 0.28-25.16 6.96-41.32 20.66-60.52 4.19-5.62 7.32-9.83 10.1-16.15v84.32c0 3.04 2.09 3.83 3.83 3.8 1.86-0.03 3.54-1.1 3.54-3.8v-84.4c3.5 7.48 7.73 13.16 14.63 22.56 10.73 14.63 17.03 29.72 17.08 54.27 0 3.28 2.02 4.05 3.78 3.93 1.93-0.12 3.44-1.48 3.44-3.93-0.67-24.09-6.47-42.22-20.07-61.24-11.18-14.88-18.43-27.26-18.43-48.44v-17.7c7.29 13.92 16.57 23.03 31.03 35.43 21.94 19.18 29.6 39.47 29.6 76.13 0 3.07 1.96 4.16 3.96 4.07 1.94-0.09 3.39-1.22 3.39-4.07 0-26.9-7.89-55.51-27.3-75.52-11.65-11.83-22.36-18.79-32.25-33.91-6.37-9.85-7.9-20.05-8.81-32.44 7.82 11.25 17.6 19.07 28.41 24.03 29.14 17.17 56.53 42.04 58.12 96.91 0.09 3.2 1.72 4.1 3.78 3.99 2.11-0.12 3.69-1.21 3.6-3.99-1.4-31.64-12.25-60.65-35.74-85.09 25.18 9.21 42.07 22.85 51.43 55.14 0.81 3 2.58 3.77 4.46 3.5 2.25-0.34 3.28-2.39 2.46-5.59-9.71-33.39-28.94-52.93-63.13-62.83z" fill="#000"/>
</svg>